<svg width="255" height="260" viewBox="0 0 255 260" fill="none" xmlns="http://www.w3.org/2000/svg">
<path d="M147.582 46.2025L223.343 31.7407L209.171 109.35L208.858 111.063L209.677 112.599L246.642 181.989L170.127 192.184L168.342 192.422L167.118 193.743L114.191 250.919L81.1138 179.776L80.3643 178.164L78.7655 177.387L9 143.48L65.1359 89.1576L66.3969 87.9374L66.6188 86.1967L76.5854 8L144.212 45.6595L145.799 46.543L147.582 46.2025Z" fill="#716F81" stroke="black" stroke-width="10"/>
<path d="M57.596 144V103.4H79.172V108.736H62.99V118.828H73.778L72.56 124.222H62.99V138.606H79.172V144H57.596ZM86.6594 144V115H109.685C110.845 115 111.831 115.425 112.643 116.276C113.455 117.088 113.861 118.074 113.861 119.234V144H108.467V122.54C108.467 121.96 108.255 121.477 107.829 121.09C107.404 120.665 106.901 120.452 106.321 120.452H103.015V144H97.5634V122.54C97.5634 121.96 97.3508 121.477 96.9254 121.09C96.5001 120.665 95.9974 120.452 95.4174 120.452H92.1114V144H86.6594ZM118.115 158.5V115H130.237C131.436 115 132.441 115.406 133.253 116.218C134.065 117.03 134.471 118.035 134.471 119.234V139.766C134.471 140.965 134.065 141.97 133.253 142.782C132.441 143.594 131.436 144 130.237 144H123.567V158.5H118.115ZM123.567 138.548H126.931C127.472 138.548 127.956 138.335 128.381 137.91C128.806 137.485 129.019 137.001 129.019 136.46V122.598C129.019 121.941 128.806 121.419 128.381 121.032C127.956 120.645 127.472 120.452 126.931 120.452H123.567V138.548ZM142.23 144C141.07 144 140.064 143.594 139.214 142.782C138.402 141.97 137.996 140.965 137.996 139.766V131.008C137.996 129.848 138.402 128.862 139.214 128.05C140.064 127.199 141.07 126.774 142.23 126.774H146.754C147.372 126.774 147.875 126.581 148.262 126.194C148.687 125.769 148.9 125.266 148.9 124.686V122.54C148.9 121.96 148.687 121.477 148.262 121.09C147.875 120.665 147.372 120.452 146.754 120.452H140.49L141.708 115H150.118C151.278 115 152.264 115.425 153.076 116.276C153.926 117.088 154.352 118.074 154.352 119.234V144H142.23ZM145.536 138.548H148.9V132.226H145.536C144.956 132.226 144.453 132.439 144.028 132.864C143.641 133.251 143.448 133.734 143.448 134.314V136.46C143.448 137.04 143.641 137.543 144.028 137.968C144.453 138.355 144.956 138.548 145.536 138.548ZM157.877 144V101.776L163.329 100.558V115H170.231L168.955 120.452H163.329V144H157.877ZM176.214 144C175.054 144 174.049 143.594 173.198 142.782C172.386 141.931 171.98 140.926 171.98 139.766V119.176C171.98 118.016 172.386 117.03 173.198 116.218C174.049 115.406 175.054 115 176.214 115H184.102C185.301 115 186.306 115.406 187.118 116.218C187.93 117.03 188.336 118.016 188.336 119.176V127.992C188.336 129.152 187.93 130.157 187.118 131.008C186.306 131.82 185.301 132.226 184.102 132.226H177.432V136.46C177.432 137.04 177.625 137.543 178.012 137.968C178.437 138.355 178.959 138.548 179.578 138.548H187.118L188.336 144H176.214ZM177.432 126.774H180.796C181.376 126.774 181.859 126.581 182.246 126.194C182.671 125.769 182.884 125.266 182.884 124.686V122.54C182.884 121.96 182.671 121.477 182.246 121.09C181.859 120.665 181.376 120.452 180.796 120.452H179.578C178.959 120.452 178.437 120.665 178.012 121.09C177.625 121.477 177.432 121.96 177.432 122.54V126.774ZM192.994 144V138.548H198.446V144H192.994ZM203.076 144V138.548H208.528V144H203.076ZM213.158 144V138.548H218.61V144H213.158Z" fill="white"/>
</svg>
