<svg width="255" height="260" viewBox="0 0 255 260" fill="none" xmlns="http://www.w3.org/2000/svg">
<path d="M147.669 46.3756L223.43 31.9138L209.258 109.523L208.945 111.236L209.764 112.772L246.729 182.162L170.214 192.357L168.429 192.595L167.205 193.916L114.278 251.092L81.2013 179.949L80.4518 178.337L78.853 177.56L9.08746 143.653L65.2234 89.3307L66.4844 88.1105L66.7063 86.3698L76.6729 8.1731L144.299 45.8326L145.886 46.7161L147.669 46.3756Z" fill="#6CB46C" stroke="black" stroke-width="10"/>
<path d="M65.3368 143.58C64.2368 143.58 63.3018 143.195 62.5318 142.425C61.7618 141.655 61.3768 140.72 61.3768 139.62V108.985C61.3768 107.922 61.7618 107.005 62.5318 106.235C63.3018 105.465 64.2368 105.08 65.3368 105.08H77.8218C78.9218 105.08 79.8568 105.465 80.6268 106.235C81.3968 107.005 81.7818 107.922 81.7818 108.985V117.565L76.6668 116.41V112.12C76.6668 111.57 76.4651 111.112 76.0618 110.745C75.6951 110.342 75.2368 110.14 74.6868 110.14H68.4718C67.9218 110.14 67.4451 110.342 67.0418 110.745C66.6751 111.112 66.4918 111.57 66.4918 112.12V136.485C66.4918 137.035 66.6751 137.512 67.0418 137.915C67.4451 138.282 67.9218 138.465 68.4718 138.465H74.6868C75.2368 138.465 75.6951 138.282 76.0618 137.915C76.4651 137.512 76.6668 137.035 76.6668 136.485V131.15H71.6068L72.7618 126.035H81.7818V139.62C81.7818 140.72 81.3968 141.655 80.6268 142.425C79.8568 143.195 78.9218 143.58 77.8218 143.58H65.3368ZM94.1632 143.58C93.0632 143.58 92.1099 143.195 91.3032 142.425C90.5332 141.655 90.1482 140.702 90.1482 139.565V131.26C90.1482 130.16 90.5332 129.225 91.3032 128.455C92.1099 127.648 93.0632 127.245 94.1632 127.245H98.4532C99.0399 127.245 99.5166 127.062 99.8832 126.695C100.287 126.292 100.488 125.815 100.488 125.265V123.23C100.488 122.68 100.287 122.222 99.8832 121.855C99.5166 121.452 99.0399 121.25 98.4532 121.25H92.5132L93.6682 116.08H101.643C102.743 116.08 103.678 116.483 104.448 117.29C105.255 118.06 105.658 118.995 105.658 120.095V143.58H94.1632ZM97.2982 138.41H100.488V132.415H97.2982C96.7482 132.415 96.2716 132.617 95.8682 133.02C95.5016 133.387 95.3182 133.845 95.3182 134.395V136.43C95.3182 136.98 95.5016 137.457 95.8682 137.86C96.2716 138.227 96.7482 138.41 97.2982 138.41ZM111.393 143.58V116.08H122.888C123.951 116.08 124.886 116.465 125.693 117.235C126.5 118.005 126.903 118.94 126.903 120.04V143.58H121.733V123.23C121.733 122.643 121.531 122.167 121.128 121.8C120.725 121.433 120.266 121.25 119.753 121.25H116.563V143.58H111.393ZM136.616 143.58C135.516 143.58 134.563 143.195 133.756 142.425C132.986 141.655 132.601 140.702 132.601 139.565V131.26C132.601 130.16 132.986 129.225 133.756 128.455C134.563 127.648 135.516 127.245 136.616 127.245H140.906C141.493 127.245 141.97 127.062 142.336 126.695C142.74 126.292 142.941 125.815 142.941 125.265V123.23C142.941 122.68 142.74 122.222 142.336 121.855C141.97 121.452 141.493 121.25 140.906 121.25H134.966L136.121 116.08H144.096C145.196 116.08 146.131 116.483 146.901 117.29C147.708 118.06 148.111 118.995 148.111 120.095V143.58H136.616ZM139.751 138.41H142.941V132.415H139.751C139.201 132.415 138.725 132.617 138.321 133.02C137.955 133.387 137.771 133.845 137.771 134.395V136.43C137.771 136.98 137.955 137.457 138.321 137.86C138.725 138.227 139.201 138.41 139.751 138.41ZM158.164 143.58C157.064 143.58 156.129 143.195 155.359 142.425C154.589 141.618 154.204 140.665 154.204 139.565V135H159.319V136.43C159.319 136.98 159.521 137.457 159.924 137.86C160.327 138.227 160.804 138.41 161.354 138.41H162.509C163.059 138.41 163.517 138.227 163.884 137.86C164.287 137.457 164.489 136.98 164.489 136.43V134.395C164.489 133.845 164.287 133.387 163.884 133.02C163.517 132.617 163.059 132.415 162.509 132.415H158.164C157.064 132.415 156.129 132.03 155.359 131.26C154.589 130.453 154.204 129.5 154.204 128.4V120.095C154.204 118.995 154.589 118.06 155.359 117.29C156.129 116.483 157.064 116.08 158.164 116.08H165.699C166.799 116.08 167.734 116.483 168.504 117.29C169.274 118.06 169.659 118.995 169.659 120.095V124.66H164.489V123.23C164.489 122.68 164.287 122.222 163.884 121.855C163.517 121.452 163.059 121.25 162.509 121.25H161.354C160.804 121.25 160.327 121.452 159.924 121.855C159.521 122.222 159.319 122.68 159.319 123.23V125.265C159.319 125.815 159.521 126.292 159.924 126.695C160.327 127.062 160.804 127.245 161.354 127.245H165.699C166.799 127.245 167.734 127.648 168.504 128.455C169.274 129.225 169.659 130.16 169.659 131.26V139.785C169.622 140.812 169.219 141.71 168.449 142.48C167.679 143.213 166.762 143.58 165.699 143.58H158.164ZM175.753 143.58V103.54L180.923 102.385V116.08H187.468L186.258 121.25H180.923V143.58H175.753ZM195.892 143.58C194.792 143.58 193.838 143.195 193.032 142.425C192.262 141.618 191.877 140.665 191.877 139.565V120.04C191.877 118.94 192.262 118.005 193.032 117.235C193.838 116.465 194.792 116.08 195.892 116.08H203.372C204.508 116.08 205.462 116.465 206.232 117.235C207.002 118.005 207.387 118.94 207.387 120.04V128.4C207.387 129.5 207.002 130.453 206.232 131.26C205.462 132.03 204.508 132.415 203.372 132.415H197.047V136.43C197.047 136.98 197.23 137.457 197.597 137.86C198 138.227 198.495 138.41 199.082 138.41H206.232L207.387 143.58H195.892ZM197.047 127.245H200.237C200.787 127.245 201.245 127.062 201.612 126.695C202.015 126.292 202.217 125.815 202.217 125.265V123.23C202.217 122.68 202.015 122.222 201.612 121.855C201.245 121.452 200.787 121.25 200.237 121.25H199.082C198.495 121.25 198 121.452 197.597 121.855C197.23 122.222 197.047 122.68 197.047 123.23V127.245Z" fill="white"/>
</svg>
