<svg version="1.2" baseProfile="tiny-ps" xmlns="http://www.w3.org/2000/svg" viewBox="0 0 284 219" width="284" height="219">
	<title>imgWelcome-svg</title>
	<style>
		tspan { white-space:pre }
		.shp0 { fill: #009048 } 
		.shp1 { fill: #91ccaf } 
	</style>
	<path id="Layer" fill-rule="evenodd" class="shp0" d="M28 44.16C26.56 44.11 25.84 44.91 25.84 46.56L25.84 49.12C25.84 50.93 26.64 51.84 28.24 51.84C28.88 51.84 29.68 51.76 30.64 51.6C31.81 51.39 32.8 51.28 33.6 51.28C34.93 51.28 36 51.76 36.8 52.72C37.6 53.68 38 54.96 38 56.56C38 58.32 37.47 59.73 36.4 60.8C35.33 61.87 33.95 62.4 32.24 62.4C30.75 62.4 28.53 62.27 25.6 62C22.67 61.73 20.45 61.6 18.96 61.6C16.67 61.6 14.75 61.68 13.2 61.84L9.28 62.24C8.21 62.35 7.49 62.4 7.12 62.4C5.41 62.4 4.03 61.87 2.96 60.8C1.95 59.73 1.44 58.32 1.44 56.56C1.44 55.07 1.84 53.81 2.64 52.8C3.49 51.79 4.53 51.28 5.76 51.28C6.24 51.28 6.91 51.39 7.76 51.6C8.61 51.76 9.23 51.84 9.6 51.84C11.04 51.84 11.76 50.03 11.76 46.4L11.76 24.24C11.76 22.53 11.71 21.44 11.6 20.96C11.33 19.57 10.67 18.88 9.6 18.88C9.17 18.88 8.53 18.99 7.68 19.2C6.88 19.36 6.24 19.44 5.76 19.44C4.53 19.44 3.49 18.93 2.64 17.92C1.84 16.91 1.44 15.65 1.44 14.16C1.44 12.4 1.97 10.99 3.04 9.92C4.11 8.8 5.49 8.24 7.2 8.24C7.25 8.24 7.33 8.24 7.44 8.24C7.55 8.29 7.65 8.32 7.76 8.32C9.04 8.32 10.99 8.45 13.6 8.72C16.21 8.99 18.19 9.12 19.52 9.12C22.08 9.12 24.88 9.01 27.92 8.8C31.76 8.53 33.95 8.4 34.48 8.4C40.29 8.4 44.99 10.05 48.56 13.36C52.19 16.61 54 20.91 54 26.24C54 31.79 52.13 36.19 48.4 39.44C44.72 42.69 39.68 44.32 33.28 44.32C32.75 44.32 31.73 44.29 30.24 44.24L28 44.16ZM25.84 30.64C25.84 32.13 25.97 33.07 26.24 33.44C26.51 33.76 27.23 33.95 28.4 34L29.68 34.08C35.97 34.45 39.12 31.97 39.12 26.64C39.12 21.52 36.29 18.96 30.64 18.96C29.25 18.96 28.29 19.04 27.76 19.2C26.8 19.47 26.21 20.11 26 21.12C25.89 21.65 25.84 22.45 25.84 23.52L25.84 30.64ZM74.67 21.76C76.16 21.76 76.91 22.8 76.91 24.88L76.91 48.96C76.91 51.68 77.42 53.04 78.43 53.04C78.64 53.04 79.02 52.99 79.55 52.88C80.14 52.72 80.62 52.64 80.99 52.64C83.23 52.64 84.35 54.03 84.35 56.8C84.35 60.48 82.78 62.32 79.63 62.32C79.1 62.32 77.6 62.19 75.15 61.92C73.66 61.76 71.95 61.68 70.03 61.68C69.07 61.68 67.66 61.79 65.79 62C63.92 62.21 62.54 62.32 61.63 62.32C60.19 62.32 59.02 61.84 58.11 60.88C57.2 59.87 56.75 58.59 56.75 57.04C56.75 54 58.03 52.48 60.59 52.48C60.59 52.48 61.28 52.64 62.67 52.96C62.88 53.01 63.07 53.04 63.23 53.04C64.19 53.04 64.67 51.55 64.67 48.56L64.67 35.6C64.67 32.56 64.22 31.04 63.31 31.04C63.15 31.04 62.67 31.17 61.87 31.44C61.34 31.55 60.91 31.6 60.59 31.6C58.03 31.6 56.75 30.11 56.75 27.12C56.75 25.52 57.2 24.24 58.11 23.28C59.02 22.27 60.22 21.76 61.71 21.76C62.3 21.76 63.15 21.84 64.27 22C66.14 22.27 67.63 22.4 68.75 22.4C69.66 22.4 70.83 22.29 72.27 22.08C73.71 21.87 74.51 21.76 74.67 21.76ZM70.11 18.72C68.14 18.72 66.43 18 64.99 16.56C63.55 15.12 62.83 13.41 62.83 11.44C62.83 9.41 63.52 7.71 64.91 6.32C66.35 4.88 68.08 4.16 70.11 4.16C72.14 4.16 73.84 4.88 75.23 6.32C76.67 7.71 77.39 9.41 77.39 11.44C77.39 13.47 76.67 15.2 75.23 16.64C73.84 18.03 72.14 18.72 70.11 18.72ZM125.73 38.56C125.73 40.8 125.44 42.29 124.85 43.04C124.32 43.79 123.22 44.16 121.57 44.16L102.05 44.16C101.09 44.16 100.48 44.27 100.21 44.48C100 44.64 99.89 45.09 99.89 45.84C99.89 48.08 100.61 49.95 102.05 51.44C103.49 52.93 105.31 53.68 107.49 53.68C109.73 53.68 112.03 52.45 114.37 50C115.97 48.29 117.73 47.44 119.65 47.44C121.25 47.44 122.53 47.89 123.49 48.8C124.5 49.71 125.01 50.85 125.01 52.24C125.01 55.33 123.31 57.97 119.89 60.16C116.53 62.29 112.42 63.36 107.57 63.36C101.22 63.36 96.16 61.44 92.37 57.6C88.58 53.76 86.69 48.64 86.69 42.24C86.69 35.79 88.56 30.59 92.29 26.64C96.08 22.64 101.01 20.64 107.09 20.64C112.75 20.64 117.25 22.27 120.61 25.52C124.03 28.77 125.73 33.12 125.73 38.56ZM100.29 34.56C100.29 34.88 100.37 35.15 100.53 35.36C100.69 35.57 101.25 35.68 102.21 35.68L111.17 35.68C111.97 35.68 112.45 35.6 112.61 35.44C112.83 35.23 112.93 34.88 112.93 34.4C112.93 33.01 112.32 31.81 111.09 30.8C109.86 29.73 108.42 29.2 106.77 29.2C104.64 29.2 102.91 30.03 101.57 31.68C100.72 32.75 100.29 33.71 100.29 34.56ZM147.32 21.2C151.38 21.2 155.11 22.77 158.52 25.92L158.52 20.16C158.52 18.24 157.86 17.28 156.52 17.28C156.2 17.28 155.56 17.33 154.6 17.44C153.91 17.65 153.22 17.76 152.52 17.76C151.51 17.76 150.66 17.33 149.96 16.48C149.27 15.63 148.92 14.56 148.92 13.28C148.92 9.87 150.74 8.16 154.36 8.16C155.54 8.16 156.39 8.19 156.92 8.24C159.06 8.45 160.5 8.56 161.24 8.56C161.94 8.56 162.95 8.51 164.28 8.4C165.62 8.29 166.6 8.24 167.24 8.24C168.58 8.24 169.48 8.56 169.96 9.2C170.5 9.79 170.76 10.91 170.76 12.56L170.76 48.96C170.76 51.68 171.27 53.04 172.28 53.04C172.6 53.04 173 52.96 173.48 52.8C173.8 52.69 174.23 52.64 174.76 52.64C177.06 52.64 178.2 54 178.2 56.72C178.2 58.37 177.8 59.73 177 60.8C176.2 61.81 175.14 62.32 173.8 62.32L173.32 62.32L170.52 61.84C169.88 61.73 168.98 61.68 167.8 61.68C166.42 61.68 165.27 61.73 164.36 61.84C163.03 62 162.31 62.08 162.2 62.08C160.55 62.08 159.72 61.12 159.72 59.2L159.72 56.24C156.95 60.99 152.79 63.36 147.24 63.36C142.34 63.36 138.28 61.36 135.08 57.36C131.94 53.31 130.36 48.21 130.36 42.08C130.36 35.84 131.91 30.8 135 26.96C138.15 23.12 142.26 21.2 147.32 21.2ZM150.12 31.28C148.15 31.28 146.52 32.21 145.24 34.08C144.02 35.95 143.32 38.48 143.16 41.68C143.16 41.68 143.16 42.03 143.16 42.72C143.16 45.97 143.78 48.53 145 50.4C146.28 52.27 147.99 53.2 150.12 53.2C152.47 53.2 154.36 52.19 155.8 50.16C157.3 48.13 158.04 45.44 158.04 42.08C158.04 38.83 157.32 36.21 155.88 34.24C154.44 32.27 152.52 31.28 150.12 31.28ZM197.86 24.24L197.86 31.04C198.61 28.32 199.49 26.32 200.5 25.04C202.85 22.11 206.13 20.64 210.34 20.64C213.27 20.64 215.73 21.6 217.7 23.52C219.73 25.39 220.74 27.71 220.74 30.48C220.74 32.67 220.1 34.48 218.82 35.92C217.54 37.31 215.91 38 213.94 38C212.45 38 211.17 37.52 210.1 36.56C209.09 35.6 208.58 34.43 208.58 33.04C208.58 32.29 208.93 31.25 209.62 29.92L209.14 29.92C205.57 29.92 203.17 31.81 201.94 35.6C200.98 38.64 200.5 42.13 200.5 46.08L200.5 49.12C200.5 51.04 200.66 52.27 200.98 52.8C201.19 53.12 201.57 53.28 202.1 53.28C202.58 53.28 203.25 53.17 204.1 52.96C204.95 52.75 205.59 52.64 206.02 52.64C207.19 52.64 208.18 53.07 208.98 53.92C209.83 54.72 210.26 55.71 210.26 56.88C210.26 58.43 209.73 59.73 208.66 60.8C207.65 61.81 206.39 62.32 204.9 62.32C204.1 62.32 202.61 62.19 200.42 61.92C199.09 61.76 197.41 61.68 195.38 61.68C193.35 61.68 191.57 61.76 190.02 61.92C187.46 62.19 185.89 62.32 185.3 62.32C181.99 62.32 180.34 60.53 180.34 56.96C180.34 53.97 181.62 52.48 184.18 52.48C184.61 52.48 185.09 52.59 185.62 52.8C186.15 52.96 186.55 53.04 186.82 53.04C187.73 53.04 188.18 51.55 188.18 48.56L188.18 35.6C188.18 32.56 187.73 31.04 186.82 31.04C186.61 31.04 186.18 31.15 185.54 31.36C184.95 31.52 184.5 31.6 184.18 31.6C181.62 31.6 180.34 30.13 180.34 27.2C180.34 25.6 180.77 24.29 181.62 23.28C182.47 22.27 183.57 21.76 184.9 21.76C185.43 21.76 186.18 21.87 187.14 22.08C188.1 22.29 189.01 22.4 189.86 22.4C190.5 22.4 191.43 22.29 192.66 22.08C193.89 21.87 194.79 21.76 195.38 21.76C197.03 21.76 197.86 22.59 197.86 24.24ZM258.08 63.36C253.71 63.36 250.78 61.6 249.28 58.08C245.55 61.6 241.12 63.36 236 63.36C231.79 63.36 228.43 62.27 225.92 60.08C223.41 57.84 222.16 54.88 222.16 51.2C222.16 45.6 224.59 41.97 229.44 40.32C231.52 39.63 233.92 39.04 236.64 38.56C240.43 37.92 242.99 37.2 244.32 36.4C245.71 35.55 246.4 34.27 246.4 32.56C246.4 31.33 245.87 30.32 244.8 29.52C243.79 28.67 242.51 28.24 240.96 28.24C239.2 28.24 238.32 28.8 238.32 29.92C238.32 30.29 238.35 30.67 238.4 31.04L238.4 31.36C238.4 32.85 237.76 34.11 236.48 35.12C235.25 36.13 233.71 36.64 231.84 36.64C229.71 36.64 227.95 36 226.56 34.72C225.18 33.44 224.48 31.84 224.48 29.92C224.48 27.04 226 24.77 229.04 23.12C232.08 21.47 236.27 20.64 241.6 20.64C247.36 20.64 251.66 21.52 254.48 23.28C257.52 25.2 259.04 28.77 259.04 34L259.04 50.56C259.04 52.27 259.47 53.12 260.32 53.12C260.75 53.12 261.15 53.09 261.52 53.04C261.68 52.99 261.87 52.96 262.08 52.96C263.31 52.96 264.35 53.39 265.2 54.24C266.06 55.09 266.48 56.13 266.48 57.36C266.48 59.12 265.68 60.56 264.08 61.68C262.54 62.8 260.54 63.36 258.08 63.36ZM246.48 46.24L246.48 44.48C246.11 44.69 243.76 45.36 239.44 46.48C236.51 47.23 235.04 48.37 235.04 49.92C235.04 52.37 236.48 53.6 239.36 53.6C244.11 53.6 246.48 51.15 246.48 46.24ZM28 114.16C26.56 114.11 25.84 114.91 25.84 116.56L25.84 119.12C25.84 120.93 26.64 121.84 28.24 121.84C28.88 121.84 29.68 121.76 30.64 121.6C31.81 121.39 32.8 121.28 33.6 121.28C34.93 121.28 36 121.76 36.8 122.72C37.6 123.68 38 124.96 38 126.56C38 128.32 37.47 129.73 36.4 130.8C35.33 131.87 33.95 132.4 32.24 132.4C30.75 132.4 28.53 132.27 25.6 132C22.67 131.73 20.45 131.6 18.96 131.6C16.67 131.6 14.75 131.68 13.2 131.84L9.28 132.24C8.21 132.35 7.49 132.4 7.12 132.4C5.41 132.4 4.03 131.87 2.96 130.8C1.95 129.73 1.44 128.32 1.44 126.56C1.44 125.07 1.84 123.81 2.64 122.8C3.49 121.79 4.53 121.28 5.76 121.28C6.24 121.28 6.91 121.39 7.76 121.6C8.61 121.76 9.23 121.84 9.6 121.84C11.04 121.84 11.76 120.03 11.76 116.4L11.76 94.24C11.76 92.53 11.71 91.44 11.6 90.96C11.33 89.57 10.67 88.88 9.6 88.88C9.17 88.88 8.53 88.99 7.68 89.2C6.88 89.36 6.24 89.44 5.76 89.44C4.53 89.44 3.49 88.93 2.64 87.92C1.84 86.91 1.44 85.65 1.44 84.16C1.44 82.4 1.97 80.99 3.04 79.92C4.11 78.8 5.49 78.24 7.2 78.24C7.25 78.24 7.33 78.24 7.44 78.24C7.55 78.29 7.65 78.32 7.76 78.32C9.04 78.32 10.99 78.45 13.6 78.72C16.21 78.99 18.19 79.12 19.52 79.12C22.08 79.12 24.88 79.01 27.92 78.8C31.76 78.53 33.95 78.4 34.48 78.4C40.29 78.4 44.99 80.05 48.56 83.36C52.19 86.61 54 90.91 54 96.24C54 101.79 52.13 106.19 48.4 109.44C44.72 112.69 39.68 114.32 33.28 114.32C32.75 114.32 31.73 114.29 30.24 114.24L28 114.16ZM25.84 100.64C25.84 102.13 25.97 103.07 26.24 103.44C26.51 103.76 27.23 103.95 28.4 104L29.68 104.08C35.97 104.45 39.12 101.97 39.12 96.64C39.12 91.52 36.29 88.96 30.64 88.96C29.25 88.96 28.29 89.04 27.76 89.2C26.8 89.47 26.21 90.11 26 91.12C25.89 91.65 25.84 92.45 25.84 93.52L25.84 100.64ZM92.61 133.36C88.24 133.36 85.31 131.6 83.81 128.08C80.08 131.6 75.65 133.36 70.53 133.36C66.32 133.36 62.96 132.27 60.45 130.08C57.95 127.84 56.69 124.88 56.69 121.2C56.69 115.6 59.12 111.97 63.97 110.32C66.05 109.63 68.45 109.04 71.17 108.56C74.96 107.92 77.52 107.2 78.85 106.4C80.24 105.55 80.93 104.27 80.93 102.56C80.93 101.33 80.4 100.32 79.33 99.52C78.32 98.67 77.04 98.24 75.49 98.24C73.73 98.24 72.85 98.8 72.85 99.92C72.85 100.29 72.88 100.67 72.93 101.04L72.93 101.36C72.93 102.85 72.29 104.11 71.01 105.12C69.79 106.13 68.24 106.64 66.37 106.64C64.24 106.64 62.48 106 61.09 104.72C59.71 103.44 59.01 101.84 59.01 99.92C59.01 97.04 60.53 94.77 63.57 93.12C66.61 91.47 70.8 90.64 76.13 90.64C81.89 90.64 86.19 91.52 89.01 93.28C92.05 95.2 93.57 98.77 93.57 104L93.57 120.56C93.57 122.27 94 123.12 94.85 123.12C95.28 123.12 95.68 123.09 96.05 123.04C96.21 122.99 96.4 122.96 96.61 122.96C97.84 122.96 98.88 123.39 99.73 124.24C100.59 125.09 101.01 126.13 101.01 127.36C101.01 129.12 100.21 130.56 98.61 131.68C97.07 132.8 95.07 133.36 92.61 133.36ZM81.01 116.24L81.01 114.48C80.64 114.69 78.29 115.36 73.97 116.48C71.04 117.23 69.57 118.37 69.57 119.92C69.57 122.37 71.01 123.6 73.89 123.6C78.64 123.6 81.01 121.15 81.01 116.24ZM118.69 94.64L118.69 97.04C122 92.77 126.13 90.64 131.09 90.64C135.95 90.64 139.81 92.53 142.69 96.32C145.57 100.05 147.01 105.09 147.01 111.44C147.01 118 145.55 123.2 142.61 127.04C139.68 130.88 135.73 132.8 130.77 132.8C128.8 132.8 127.01 132.43 125.41 131.68C124.4 131.2 122.85 130.19 120.77 128.64L120.77 134.8C120.77 136.45 121.41 137.28 122.69 137.28C123.23 137.28 123.84 137.2 124.53 137.04C125.49 136.93 126.19 136.88 126.61 136.88C129.07 136.88 130.29 138.27 130.29 141.04C130.29 144.24 128.64 145.84 125.33 145.84C124.37 145.84 122.91 145.73 120.93 145.52C118.48 145.25 116.05 145.12 113.65 145.12C112.64 145.12 110.37 145.33 106.85 145.76C106.21 145.81 105.73 145.84 105.41 145.84C105.08 145.84 104.75 145.81 104.45 145.75C104.66 145.93 104.86 146.12 105.06 146.32C106.5 147.71 107.22 149.41 107.22 151.44C107.22 153.41 106.5 155.12 105.06 156.56C103.67 158 101.96 158.72 99.94 158.72C97.91 158.72 96.18 158.03 94.74 156.64C93.3 155.2 92.58 153.47 92.58 151.44C92.58 149.41 93.3 147.71 94.74 146.32C96.18 144.88 97.91 144.16 99.94 144.16C100.71 144.16 101.44 144.27 102.12 144.48C102.07 144.43 102.02 144.37 101.97 144.32C101.07 143.36 100.61 142.11 100.61 140.56C100.61 137.57 101.92 136.08 104.53 136.08C104.96 136.08 105.36 136.16 105.73 136.32C106.69 136.53 107.15 136.64 107.09 136.64C108.05 136.64 108.53 135.12 108.53 132.08L108.53 105.6C108.53 102.56 108.08 101.04 107.17 101.04C107.01 101.04 106.53 101.17 105.73 101.44C105.2 101.55 104.77 101.6 104.45 101.6C101.89 101.6 100.61 100.11 100.61 97.12C100.61 95.57 101.04 94.29 101.89 93.28C102.75 92.27 103.84 91.76 105.17 91.76L105.73 91.76L108.53 92.16C108.91 92.27 109.68 92.32 110.85 92.32C112.4 92.32 113.84 92.21 115.17 92C115.87 91.89 116.37 91.84 116.69 91.84C118.03 91.84 118.69 92.77 118.69 94.64ZM127.57 100.8C125.49 100.8 123.87 101.76 122.69 103.68C121.52 105.6 120.93 108.27 120.93 111.68C120.93 115.04 121.52 117.71 122.69 119.68C123.87 121.65 125.44 122.64 127.41 122.64C129.44 122.64 131.07 121.65 132.29 119.68C133.52 117.71 134.13 115.04 134.13 111.68C134.13 108.37 133.52 105.73 132.29 103.76C131.12 101.79 129.55 100.8 127.57 100.8ZM190.34 108.56C190.34 110.8 190.05 112.29 189.46 113.04C188.93 113.79 187.83 114.16 186.18 114.16L166.66 114.16C165.7 114.16 165.09 114.27 164.82 114.48C164.61 114.64 164.5 115.09 164.5 115.84C164.5 118.08 165.22 119.95 166.66 121.44C168.1 122.93 169.91 123.68 172.1 123.68C174.34 123.68 176.63 122.45 178.98 120C180.58 118.29 182.34 117.44 184.26 117.44C185.86 117.44 187.14 117.89 188.1 118.8C189.11 119.71 189.62 120.85 189.62 122.24C189.62 125.33 187.91 127.97 184.5 130.16C181.14 132.29 177.03 133.36 172.18 133.36C165.83 133.36 160.77 131.44 156.98 127.6C153.19 123.76 151.3 118.64 151.3 112.24C151.3 105.79 153.17 100.59 156.9 96.64C160.69 92.64 165.62 90.64 171.7 90.64C177.35 90.64 181.86 92.27 185.22 95.52C188.63 98.77 190.34 103.12 190.34 108.56ZM164.9 104.56C164.9 104.88 164.98 105.15 165.14 105.36C165.3 105.57 165.86 105.68 166.82 105.68L175.78 105.68C176.58 105.68 177.06 105.6 177.22 105.44C177.43 105.23 177.54 104.88 177.54 104.4C177.54 103.01 176.93 101.81 175.7 100.8C174.47 99.73 173.03 99.2 171.38 99.2C169.25 99.2 167.51 100.03 166.18 101.68C165.33 102.75 164.9 103.71 164.9 104.56ZM211.29 78.16C212.79 78.16 213.53 79.15 213.53 81.12L213.53 118.96C213.53 121.63 214.07 122.96 215.13 122.96C215.56 122.96 215.93 122.91 216.25 122.8C216.57 122.69 217 122.64 217.53 122.64C219.88 122.64 221.05 124.03 221.05 126.8C221.05 130.48 219.45 132.32 216.25 132.32C216.2 132.32 214.17 132.16 210.17 131.84C208.95 131.73 207.64 131.68 206.25 131.68C205.08 131.68 203.83 131.76 202.49 131.92C200.25 132.19 198.84 132.32 198.25 132.32C196.81 132.32 195.64 131.84 194.73 130.88C193.83 129.87 193.37 128.56 193.37 126.96C193.37 123.97 194.68 122.48 197.29 122.48C197.61 122.48 198.04 122.59 198.57 122.8C199.16 122.96 199.61 123.04 199.93 123.04C200.84 123.04 201.29 121.55 201.29 118.56L201.29 91.92C201.29 88.93 200.84 87.44 199.93 87.44C199.56 87.44 199.08 87.55 198.49 87.76C198.17 87.87 197.75 87.92 197.21 87.92C194.65 87.92 193.37 86.45 193.37 83.52C193.37 81.87 193.83 80.56 194.73 79.6C195.64 78.64 196.87 78.16 198.41 78.16C198.84 78.16 199.75 78.24 201.13 78.4C202.95 78.61 204.31 78.72 205.21 78.72C206.44 78.72 207.51 78.61 208.41 78.4C209.64 78.24 210.6 78.16 211.29 78.16ZM18 191.84C19.81 191.84 20.72 190.19 20.72 186.88L20.72 163.84C20.72 160.27 19.41 158.48 16.8 158.48C14.19 158.48 12.88 159.39 12.88 161.2C12.88 161.73 12.96 162.56 13.12 163.68C13.33 164.75 13.44 165.55 13.44 166.08C13.44 170.83 11.44 173.2 7.44 173.2C5.57 173.2 4.11 172.61 3.04 171.44C1.97 170.21 1.44 168.59 1.44 166.56C1.44 165.87 1.55 164.61 1.76 162.8C1.92 161.41 2 160.13 2 158.96C2 158.32 1.92 157.01 1.76 155.04C1.65 153.71 1.6 152.64 1.6 151.84C1.6 149.49 2.77 148.32 5.12 148.32C6.35 148.32 7.89 148.4 9.76 148.56C14.03 148.93 20 149.12 27.68 149.12C35.41 149.12 41.41 148.93 45.68 148.56C47.55 148.4 49.07 148.32 50.24 148.32C52.64 148.32 53.84 149.49 53.84 151.84C53.84 152.64 53.76 153.84 53.6 155.44C53.49 156.99 53.44 158.16 53.44 158.96C53.44 159.81 53.52 161.09 53.68 162.8C53.89 165.04 54 166.32 54 166.64C54 168.67 53.44 170.27 52.32 171.44C51.25 172.61 49.81 173.2 48 173.2C44 173.2 42 170.91 42 166.32C42 165.68 42.08 164.83 42.24 163.76C42.4 162.69 42.48 161.89 42.48 161.36C42.48 159.44 41.31 158.48 38.96 158.48C37.41 158.48 36.32 158.88 35.68 159.68C35.04 160.48 34.72 161.87 34.72 163.84L34.72 186.88C34.72 190.19 35.63 191.84 37.44 191.84C38.03 191.84 38.88 191.76 40 191.6C41.17 191.39 42.05 191.28 42.64 191.28C45.84 191.28 47.44 192.88 47.44 196.08C47.44 200.29 45.44 202.4 41.44 202.4C39.89 202.4 38.05 202.29 35.92 202.08C32.72 201.76 29.97 201.6 27.68 201.6C25.33 201.6 22.59 201.76 19.44 202.08C17.36 202.29 15.52 202.4 13.92 202.4C9.92 202.4 7.92 200.45 7.92 196.56C7.92 193.04 9.55 191.28 12.8 191.28C13.39 191.28 14.24 191.39 15.36 191.6C16.53 191.76 17.41 191.84 18 191.84ZM74.67 161.76C76.16 161.76 76.91 162.8 76.91 164.88L76.91 188.96C76.91 191.68 77.42 193.04 78.43 193.04C78.64 193.04 79.02 192.99 79.55 192.88C80.14 192.72 80.62 192.64 80.99 192.64C83.23 192.64 84.35 194.03 84.35 196.8C84.35 200.48 82.78 202.32 79.63 202.32C79.1 202.32 77.6 202.19 75.15 201.92C73.66 201.76 71.95 201.68 70.03 201.68C69.07 201.68 67.66 201.79 65.79 202C63.92 202.21 62.54 202.32 61.63 202.32C60.19 202.32 59.02 201.84 58.11 200.88C57.2 199.87 56.75 198.59 56.75 197.04C56.75 194 58.03 192.48 60.59 192.48C60.59 192.48 61.28 192.64 62.67 192.96C62.88 193.01 63.07 193.04 63.23 193.04C64.19 193.04 64.67 191.55 64.67 188.56L64.67 175.6C64.67 172.56 64.22 171.04 63.31 171.04C63.15 171.04 62.67 171.17 61.87 171.44C61.34 171.55 60.91 171.6 60.59 171.6C58.03 171.6 56.75 170.11 56.75 167.12C56.75 165.52 57.2 164.24 58.11 163.28C59.02 162.27 60.22 161.76 61.71 161.76C62.3 161.76 63.15 161.84 64.27 162C66.14 162.27 67.63 162.4 68.75 162.4C69.66 162.4 70.83 162.29 72.27 162.08C73.71 161.87 74.51 161.76 74.67 161.76ZM70.11 158.72C68.14 158.72 66.43 158 64.99 156.56C63.55 155.12 62.83 153.41 62.83 151.44C62.83 149.41 63.52 147.71 64.91 146.32C66.35 144.88 68.08 144.16 70.11 144.16C72.14 144.16 73.84 144.88 75.23 146.32C76.67 147.71 77.39 149.41 77.39 151.44C77.39 153.47 76.67 155.2 75.23 156.64C73.84 158.03 72.14 158.72 70.11 158.72ZM88.98 208.16C88.98 208.91 88.79 209.6 88.42 210.24C88.84 210.35 89.32 210.4 89.86 210.4C91.67 210.4 92.92 209.6 93.62 208C94.36 206.4 94.74 203.55 94.74 199.44L94.74 175.6C94.74 172.56 94.26 171.04 93.3 171.04C92.98 171.04 92.44 171.15 91.7 171.36C91 171.52 90.52 171.6 90.26 171.6C87.96 171.6 86.82 170.11 86.82 167.12C86.82 163.55 88.39 161.76 91.54 161.76C92.34 161.76 93.48 161.87 94.98 162.08C96.52 162.29 97.7 162.4 98.5 162.4C99.3 162.4 100.5 162.29 102.1 162.08C103.7 161.87 104.58 161.76 104.74 161.76C106.23 161.76 106.98 162.8 106.98 164.88L106.98 201.52C106.98 204.51 106.71 206.83 106.18 208.48C105.64 210.19 104.63 211.84 103.14 213.44C99.88 216.96 95.4 218.72 89.7 218.72C85.75 218.72 82.52 217.89 80.02 216.24C77.51 214.64 76.26 212.53 76.26 209.92C76.26 208.05 76.92 206.48 78.26 205.2C79.59 203.92 81.24 203.28 83.22 203.28C84.87 203.28 86.23 203.73 87.3 204.64C88.42 205.6 88.98 206.77 88.98 208.16ZM153.47 178.56C153.47 180.8 153.17 182.29 152.59 183.04C152.05 183.79 150.96 184.16 149.31 184.16L129.79 184.16C128.83 184.16 128.21 184.27 127.95 184.48C127.73 184.64 127.63 185.09 127.63 185.84C127.63 188.08 128.35 189.95 129.79 191.44C131.23 192.93 133.04 193.68 135.23 193.68C137.47 193.68 139.76 192.45 142.11 190C143.71 188.29 145.47 187.44 147.39 187.44C148.99 187.44 150.27 187.89 151.23 188.8C152.24 189.71 152.75 190.85 152.75 192.24C152.75 195.33 151.04 197.97 147.63 200.16C144.27 202.29 140.16 203.36 135.31 203.36C128.96 203.36 123.89 201.44 120.11 197.6C116.32 193.76 114.43 188.64 114.43 182.24C114.43 175.79 116.29 170.59 120.03 166.64C123.81 162.64 128.75 160.64 134.83 160.64C140.48 160.64 144.99 162.27 148.35 165.52C151.76 168.77 153.47 173.12 153.47 178.56ZM128.03 174.56C128.03 174.88 128.11 175.15 128.27 175.36C128.43 175.57 128.99 175.68 129.95 175.68L138.91 175.68C139.71 175.68 140.19 175.6 140.35 175.44C140.56 175.23 140.67 174.88 140.67 174.4C140.67 173.01 140.05 171.81 138.83 170.8C137.6 169.73 136.16 169.2 134.51 169.2C132.37 169.2 130.64 170.03 129.31 171.68C128.45 172.75 128.03 173.71 128.03 174.56ZM174.66 164.24L174.66 171.04C175.4 168.32 176.28 166.32 177.3 165.04C179.64 162.11 182.92 160.64 187.14 160.64C190.07 160.64 192.52 161.6 194.5 163.52C196.52 165.39 197.54 167.71 197.54 170.48C197.54 172.67 196.9 174.48 195.62 175.92C194.34 177.31 192.71 178 190.74 178C189.24 178 187.96 177.52 186.9 176.56C185.88 175.6 185.38 174.43 185.38 173.04C185.38 172.29 185.72 171.25 186.42 169.92L185.94 169.92C182.36 169.92 179.96 171.81 178.74 175.6C177.78 178.64 177.3 182.13 177.3 186.08L177.3 189.12C177.3 191.04 177.46 192.27 177.78 192.8C177.99 193.12 178.36 193.28 178.9 193.28C179.38 193.28 180.04 193.17 180.9 192.96C181.75 192.75 182.39 192.64 182.82 192.64C183.99 192.64 184.98 193.07 185.78 193.92C186.63 194.72 187.06 195.71 187.06 196.88C187.06 198.43 186.52 199.73 185.46 200.8C184.44 201.81 183.19 202.32 181.7 202.32C180.9 202.32 179.4 202.19 177.22 201.92C175.88 201.76 174.2 201.68 172.18 201.68C170.15 201.68 168.36 201.76 166.82 201.92C164.26 202.19 162.68 202.32 162.1 202.32C158.79 202.32 157.14 200.53 157.14 196.96C157.14 193.97 158.42 192.48 160.98 192.48C161.4 192.48 161.88 192.59 162.42 192.8C162.95 192.96 163.35 193.04 163.62 193.04C164.52 193.04 164.98 191.55 164.98 188.56L164.98 175.6C164.98 172.56 164.52 171.04 163.62 171.04C163.4 171.04 162.98 171.15 162.34 171.36C161.75 171.52 161.3 171.6 160.98 171.6C158.42 171.6 157.14 170.13 157.14 167.2C157.14 165.6 157.56 164.29 158.42 163.28C159.27 162.27 160.36 161.76 161.7 161.76C162.23 161.76 162.98 161.87 163.94 162.08C164.9 162.29 165.8 162.4 166.66 162.4C167.3 162.4 168.23 162.29 169.46 162.08C170.68 161.87 171.59 161.76 172.18 161.76C173.83 161.76 174.66 162.59 174.66 164.24ZM234.88 203.36C230.5 203.36 227.57 201.6 226.08 198.08C222.34 201.6 217.92 203.36 212.8 203.36C208.59 203.36 205.22 202.27 202.72 200.08C200.21 197.84 198.96 194.88 198.96 191.2C198.96 185.6 201.38 181.97 206.24 180.32C208.32 179.63 210.72 179.04 213.44 178.56C217.22 177.92 219.78 177.2 221.12 176.4C222.5 175.55 223.2 174.27 223.2 172.56C223.2 171.33 222.66 170.32 221.6 169.52C220.59 168.67 219.31 168.24 217.76 168.24C216 168.24 215.12 168.8 215.12 169.92C215.12 170.29 215.15 170.67 215.2 171.04L215.2 171.36C215.2 172.85 214.56 174.11 213.28 175.12C212.05 176.13 210.5 176.64 208.64 176.64C206.5 176.64 204.75 176 203.36 174.72C201.97 173.44 201.28 171.84 201.28 169.92C201.28 167.04 202.8 164.77 205.84 163.12C208.88 161.47 213.06 160.64 218.4 160.64C224.16 160.64 228.45 161.52 231.28 163.28C234.32 165.2 235.84 168.77 235.84 174L235.84 190.56C235.84 192.27 236.26 193.12 237.12 193.12C237.54 193.12 237.94 193.09 238.32 193.04C238.48 192.99 238.66 192.96 238.88 192.96C240.1 192.96 241.15 193.39 242 194.24C242.85 195.09 243.28 196.13 243.28 197.36C243.28 199.12 242.48 200.56 240.88 201.68C239.33 202.8 237.33 203.36 234.88 203.36ZM223.28 186.24L223.28 184.48C222.91 184.69 220.56 185.36 216.24 186.48C213.31 187.23 211.84 188.37 211.84 189.92C211.84 192.37 213.28 193.6 216.16 193.6C220.91 193.6 223.28 191.15 223.28 186.24Z" />
	<path id="Layer" fill-rule="evenodd" class="shp1" d="M262.88 133.36C256.27 133.36 251.15 131.49 247.52 127.76C243.95 124.03 242.16 118.77 242.16 112C242.16 105.28 243.95 100.05 247.52 96.32C251.09 92.53 256.11 90.64 262.56 90.64C268.91 90.64 273.89 92.51 277.52 96.24C281.2 99.97 283.04 105.09 283.04 111.6C283.04 118.43 281.25 123.76 277.68 127.6C274.16 131.44 269.23 133.36 262.88 133.36ZM252.08 83.52C252.08 82.45 252.56 81.52 253.52 80.72C253.89 80.45 254.85 79.89 256.4 79.04L263.84 74.96C265.39 74.11 266.85 73.68 268.24 73.68C269.52 73.68 270.64 74.24 271.6 75.36C272.61 76.43 273.12 77.71 273.12 79.2C273.12 81.12 271.36 82.77 267.84 84.16L260.64 86.96C258.45 87.81 256.8 88.24 255.68 88.24C254.35 88.24 253.31 87.41 252.56 85.76C252.24 85.07 252.08 84.32 252.08 83.52ZM262.56 100.48C260.21 100.48 258.35 101.52 256.96 103.6C255.63 105.63 254.96 108.43 254.96 112C254.96 115.63 255.63 118.45 256.96 120.48C258.35 122.51 260.27 123.52 262.72 123.52C267.68 123.52 270.16 119.68 270.16 112C270.16 104.32 267.63 100.48 262.56 100.48Z" />
</svg>