<svg width="68" height="129" viewBox="0 0 68 129" fill="none" xmlns="http://www.w3.org/2000/svg">
<path d="M61.5873 36.085C58.9206 34.8993 55.7979 36.0999 54.6122 38.7661L47.4855 55.2669H45.795V44.7157V41.8426V15.4103C45.795 12.4923 43.4295 10.1264 40.5111 10.1264C37.5928 10.1264 35.2272 12.4919 35.2272 15.4103V7.99496C35.2272 5.07696 32.8617 2.71106 29.9433 2.71106C27.0253 2.71106 24.6594 5.07662 24.6594 7.99496V15.4103C24.6594 12.4923 22.2939 10.1264 19.3755 10.1264C16.4572 10.1264 14.0916 12.4919 14.0916 15.4103V27.9121C14.0916 24.9941 11.7261 22.6282 8.80771 22.6282C5.8897 22.6282 3.5238 24.9938 3.5238 27.9121V41.8426V42.0737V65.8226C3.5238 71.8515 7.30951 76.9939 12.6326 79.009V123.71H43.6589V79.0087C47.6152 77.5108 50.7208 74.2847 52.0554 70.252L52.0916 70.2574L57.141 59.0871L64.2677 43.0597C65.4541 40.3934 64.2535 37.2706 61.5873 36.085Z" fill="#FFCAB9"/>
<path d="M21.712 15.4102C21.712 13.9904 22.275 12.7044 23.1859 11.7549C22.7632 11.3143 22.2648 10.9494 21.712 10.676V15.4102Z" fill="#FABBA7"/>
<path d="M13.5301 76.6387C9.0608 74.9469 6.05832 70.6 6.05832 65.8225V59.1388C6.05832 55.8623 0.98999 55.8623 0.98999 59.1388V65.8225C0.98999 72.0931 4.5858 77.847 10.0988 80.6545V124.71C10.0988 126.11 11.2331 127.244 12.633 127.244C14.0328 127.244 15.1671 126.11 15.1671 124.71V79.0087C15.1671 77.9555 14.5153 77.0117 13.5301 76.6387Z" fill="black"/>
<path d="M66.7376 38.1079C65.9885 36.1586 64.5248 34.6179 62.6171 33.7694C58.7243 32.0391 53.9935 33.9211 52.2858 37.7612L48.3294 46.9217V15.4103C48.4369 10.0581 42.7104 6.12473 37.7616 8.09158C37.1599 -2.42148 22.5499 -2.41236 22.1258 8.09158C17.1761 6.12609 11.4513 10.0578 11.5584 15.4106V20.5938C6.61201 18.6286 0.881082 22.5593 0.990558 27.9125V46.468C0.990558 49.7445 6.05889 49.7445 6.05889 46.468V27.9121C6.20013 24.266 11.4205 24.2727 11.5584 27.9121V45.5364C11.5584 48.8129 16.6267 48.8129 16.6267 45.5364C16.6267 35.4944 16.6267 25.4523 16.6267 15.4103C16.7622 11.7736 21.9863 11.7627 22.1258 15.4103V40.0538C22.1258 43.3303 27.1942 43.3303 27.1942 40.0538V7.99495C27.1942 6.47884 28.4275 5.24521 29.9439 5.24521C31.4604 5.24521 32.6936 6.4785 32.6936 7.99495V40.0538C32.6936 43.3303 37.762 43.3303 37.762 40.0538V15.4103C37.762 13.8941 38.9956 12.6605 40.512 12.6605C42.0285 12.6605 43.2618 13.8938 43.2618 15.4103V52.7942C35.7816 53.4629 29.9287 59.7517 29.9287 67.2768C29.9287 70.5533 34.997 70.5533 34.997 67.2768C34.997 60.172 41.4298 57.5504 47.4864 57.8014C48.4974 57.8014 49.412 57.2003 49.8131 56.2721L56.9291 39.796C57.7535 38.3289 58.9635 37.8636 60.5583 38.4009C62.0258 39.2253 62.491 40.4353 61.9538 42.0305C57.9569 51.0193 49.7026 69.4167 49.7026 69.4167C48.5342 72.7364 45.9399 75.4365 42.7631 76.639C41.7778 77.0121 41.126 77.9555 41.126 79.009V123.71C41.126 125.11 42.2603 126.244 43.6602 126.244C45.06 126.244 46.1943 125.11 46.1943 123.71V80.6505C49.9611 78.7144 52.9758 75.2929 54.4452 71.2058C58.5249 62.1815 62.5606 53.1389 66.5846 44.0896C67.4323 42.1815 67.4871 40.0572 66.7376 38.1079Z" fill="black"/>
</svg>
