<svg width="56" height="125" viewBox="0 0 56 125" fill="none" xmlns="http://www.w3.org/2000/svg">
<path d="M43.6595 122.21V55.7422C48.9823 53.727 52.768 48.5847 52.768 42.5558V18.5758H3.52478V42.5558C3.52478 48.5847 7.31049 53.727 12.6332 55.7422V122.21H43.6595Z" fill="#FFCAB9"/>
<path d="M8.80835 24.0909C5.88999 24.0909 3.52441 21.7253 3.52441 18.8069V13.7683C3.52441 10.8499 5.88999 8.48438 8.80835 8.48438C11.7267 8.48438 14.0923 10.8499 14.0923 13.7683V18.8069C14.0923 21.7253 11.7267 24.0909 8.80835 24.0909Z" fill="#FABBA7"/>
<path d="M19.3762 24.091C16.4579 24.091 14.0923 21.7254 14.0923 18.8071V8.02429C14.0923 5.10593 16.4579 2.74036 19.3762 2.74036C22.2946 2.74036 24.6602 5.10593 24.6602 8.02429V18.8071C24.6602 21.7254 22.2946 24.091 19.3762 24.091Z" fill="#FABBA7"/>
<path d="M29.944 24.091C27.0256 24.091 24.66 21.7254 24.66 18.8071V8.02429C24.66 5.10593 27.0256 2.74036 29.944 2.74036C32.8623 2.74036 35.2279 5.10593 35.2279 8.02429V18.8071C35.2279 21.7254 32.862 24.091 29.944 24.091Z" fill="#FABBA7"/>
<path d="M40.5118 24.091C37.5935 24.091 35.2279 21.7254 35.2279 18.8071V8.02429C35.2279 5.10593 37.5935 2.74036 40.5118 2.74036C43.4302 2.74036 45.7958 5.10593 45.7958 8.02429V18.8071C45.7958 21.7254 43.4299 24.091 40.5118 24.091Z" fill="#FABBA7"/>
<path d="M52.7685 42.5559V18.8069C52.7685 15.8885 50.4029 13.5229 47.4845 13.5229H29.944C27.0256 13.5229 24.66 15.8885 24.66 18.8069C24.66 21.7252 27.0256 24.0908 29.944 24.0908H42.2006V32.0002C37.3056 32.9067 32.4626 37.5247 32.4626 44.0098" fill="#FFCAB9"/>
<path d="M48.3295 11.0351V8.02417C48.3518 1.24444 40.1344 -2.30711 35.2279 2.26824C32.3748 -0.460549 27.5125 -0.459873 24.6604 2.26824C20.2321 -1.86853 12.832 0.595018 11.7068 6.50976C6.74557 4.41248 0.876777 8.35124 0.990645 13.7686V42.5557C0.990645 48.8263 4.58646 54.5802 10.0991 57.388L10.9962 121.176C10.9962 122.576 12.1305 123.71 13.5304 123.71C14.9302 123.71 16.0645 122.576 16.0645 121.176L15.1674 55.7422C15.1674 54.6886 14.5157 53.7452 13.5304 53.3722C9.06146 51.6804 6.05898 47.3335 6.05898 42.5557V26.1245C8.71613 27.1889 12.092 26.4905 14.0923 24.5631C16.9454 27.2919 21.808 27.2916 24.6601 24.5631C26.0525 25.8424 27.9082 26.6253 29.944 26.6253H39.6661V30.0792C34.6362 31.9169 29.9284 36.9751 29.9284 44.01C29.9284 45.4095 31.0627 46.5441 32.4626 46.5441C33.8625 46.5441 34.9968 45.4095 34.9968 44.01C34.9968 38.7501 38.946 35.1803 42.6621 34.492C43.8633 34.2693 44.7347 33.2219 44.7347 32.0001V24.0908C44.7347 22.6912 43.6004 21.5566 42.2006 21.5566H29.944C28.4279 21.5566 27.1942 20.323 27.1942 18.8069C27.1942 17.2908 28.4275 16.0571 29.944 16.0571H47.4845C49.0006 16.0571 50.2342 17.2904 50.2342 18.8069V42.5557C50.2342 47.3335 47.2314 51.6801 42.7628 53.3722C41.7775 53.7452 41.1257 54.6886 41.1257 55.7422L42.0228 121.176C42.0228 122.576 43.1571 123.71 44.557 123.71C45.9569 123.71 47.0912 122.576 47.0912 121.176L46.1941 57.388C51.7067 54.5802 55.3025 48.8263 55.3025 42.5557V18.8069C55.3025 14.7816 52.2443 11.4581 48.3295 11.0351ZM40.5115 5.27444C42.0276 5.27444 43.2612 6.50773 43.2612 8.02417V10.9888H37.7621V8.02417C37.7621 6.50807 38.9953 5.27444 40.5115 5.27444ZM8.80837 21.5566C7.29227 21.5566 6.05864 20.3233 6.05864 18.8069V18.5758V13.7683C6.19717 10.1245 11.4206 10.1275 11.5578 13.7683V18.8069C11.5581 20.3233 10.3248 21.5566 8.80837 21.5566ZM19.3765 21.5566C17.8604 21.5566 16.6264 20.3233 16.6264 18.8069V13.7683V8.02417C16.765 4.38072 21.9887 4.38309 22.1259 8.02417V18.8069C22.1259 20.3233 20.8926 21.5566 19.3765 21.5566ZM27.1942 11.4896V8.0245C27.3328 4.38071 32.5562 4.38375 32.6934 8.0245V10.9891H29.9436C28.9766 10.9888 28.0501 11.1665 27.1942 11.4896Z" fill="black"/>
</svg>
